<?xml version="1.0" encoding="UTF-8"?>
<svg xmlns="http://www.w3.org/2000/svg" version="1.1" viewBox="0 0 776.9 160.5">
  <!-- Generator: Adobe Illustrator 28.7.1, SVG Export Plug-In . SVG Version: 1.2.0 Build 142)  -->
  <g>
    <g id="Laag_1">
      <path d="M160.3,96.4v32.1h-41c4.3,0,8-2.6,9.6-6.3h0c2.9-14.7,15.9-25.8,31.4-25.8ZM131.9,32.2c-2.1,0-3.9-1.7-3.9-3.9h0C126.1,12.5,112.6.2,96.2.2h-32.1c-16.5,0-30.1,12.5-31.9,28.5h0c0,2-1.6,3.6-3.7,3.7C12.5,34.2,0,47.8,0,64.3v32.1c0,16.6,12.6,30.2,28.7,31.9,1.8.2,3.2,1.5,3.5,3.3,1.6,16.2,15.3,28.9,31.9,28.9h32.1c16.4,0,29.9-12.3,31.8-28.2h0c0-2.1,1.7-3.8,3.9-3.8H42.5c-5.8,0-10.5-4.7-10.5-10.5V42.7c0-5.8,4.7-10.5,10.5-10.5h76.7c4.3,0,8,2.6,9.6,6.3h0c2.9,14.7,15.9,25.8,31.4,25.8v-32.1h-28.4ZM737.1,103.5c-3.2-4.6-8.4-7.3-14-7.3h-23.3c-5.5-.2-6-3.2-4.2-5.8L768,.2h-41.1l-45.7,57c-2.9,2.6-7.3,2.6-10.2,0l-35.2-50c-3.1-4.4-8.1-7-13.5-7h-32.5l40.6,57.3c2.7,4,7.2,6.5,12.1,6.5h24,0c6.1,0,6.5,3.5,4.3,6.2l-72,89.6h41.1l45.5-56.6c2.9-2.8,7.5-2.8,10.5,0l35.7,50.3c2.7,4,7.2,6.5,12.1,6.5h33.3l-39.8-56.5ZM549.6,32.5h0c-1.9,0-3.5-1.4-3.8-3.3-1.5-16.3-15.2-29-31.9-29h-52.7v28.3c-1.8-16-15.4-28.5-31.8-28.5h-52.3v32.1h0s0,0,0,0h0v128.2h32.1V42.5c0-5.8,4.7-10.5,10.5-10.5h0s11.4,0,0,0h31.2c5.8,0,10.5,4.7,10.5,10.5v117.9h32.1V41.6c.6-5.3,5-9.4,10.4-9.4h31.5c5.8,0,10.5,4.7,10.5,10.5h0v117.1h32.1v-95.5c0-16.4-12.4-30-28.3-31.8ZM320.5,128.4s3,0,0,0h0c-2,0-3.7,1.6-3.8,3.6-1.8,16-15.4,28.5-31.8,28.5h-64.1s-32.1,0-32.1,0V.2h96.2c16.5,0,30.1,12.5,31.9,28.6.1,2,1.7,3.6,3.7,3.7,16.1,1.8,28.5,15.3,28.5,31.9v64.1h-28.5ZM306.3,128.4c-5.9,0,0,0,0,0h0c5.8,0,10.5-4.7,10.5-10.5h0c0,0,0-76.3,0-76.3-.5-5.3-5-9.4-10.4-9.4h-75.4c-5.4,0-9.8,4.1-10.4,9.3v76.4c0,5.8,4.7,10.5,10.5,10.5h0s75.2,0,75.2,0h0Z"/>
    </g>
  </g>
</svg>