<svg xmlns="http://www.w3.org/2000/svg" viewBox="0 0 160 160">
  <style>
    path { fill: #b9ff00; }
    @media (prefers-color-scheme: light) { path { fill: #b9ff00; } }
  </style>
  <path d="M160.3,96.4v32.1h-41c4.3,0,8-2.6,9.6-6.3h0c2.9-14.7,15.9-25.8,31.4-25.8ZM131.9,32.2c-2.1,0-3.9-1.7-3.9-3.9h0C126.1,12.5,112.6.2,96.2.2h-32.1c-16.5,0-30.1,12.5-31.9,28.5h0c0,2-1.6,3.6-3.7,3.7C12.5,34.2,0,47.8,0,64.3v32.1c0,16.6,12.6,30.2,28.7,31.9,1.8.2,3.2,1.5,3.5,3.3,1.6,16.2,15.3,28.9,31.9,28.9h32.1c16.4,0,29.9-12.3,31.8-28.2h0c0-2.1,1.7-3.8,3.9-3.8H42.5c-5.8,0-10.5-4.7-10.5-10.5V42.7c0-5.8,4.7-10.5,10.5-10.5h76.7c4.3,0,8,2.6,9.6,6.3h0c2.9,14.7,15.9,25.8,31.4,25.8v-32.1h-28.4Z"/>
</svg>
